Patient4_TMGait_0pt5_02_right_33_EMG.mot
version=1
nRows=30
nColumns=33
inDegrees=no
endheader
time	1LAddLong	2LGlutMax	3LGlutMed	4LIliopsoas	5LSemiMemb	6LBicFemLong	7LRecFem	8LVastMed	9LVastLat	10LGasMed	11LTibAnt	12lTibPost	13LPeroneusLong	14LSol	15LExtDigLong	16LFlexDigLong	17RAddLong	18RGlutMax	19RGlutMed	20RIliopsoas	21RSemiMemb	22RBicFemLong	23RRecFem	24RVastMed	25RVastLat	26RGasMed	27RTibAnt	28RTibPost	29RPeroneusLong	30RSol	31RExtDigLong	32RFlexDigLong
43.607	-0.004272	-0.20554	0.069885	-0.010681	-0.004272	-0.010223	-0.25604	-0.021515	0.075531	-0.043488	-0.34714	-0.02655	0.031433	-0.12665	-0.13046	-0.038757	-0.11704	-0.49774	-0.36331	0.13077	0.11108	-0.066833	0.42496	0.20386	-0.16357	-0.00061	0.014954	-0.006714	-0.54245	-0.15717	-0.001831	-0.023804
43.608	-0.003815	-0.26016	0.061493	-0.002594	-0.004578	-0.015717	-0.25742	-0.025024	0.084686	-0.010986	-0.23346	-0.034637	-0.013123	-0.16632	-0.070496	-0.042114	-0.065613	-0.66116	-0.14664	0.036774	0.19836	-0.47577	0.42633	0.26596	-0.13672	0.050049	-0.023956	-0.055695	-0.29831	-0.077515	0.009155	-0.022278
43.609	-0.006409	-0.26962	0.067749	0.000153	-0.000916	-0.022278	-0.24826	-0.03418	0.077667	0.01358	-0.16266	-0.019531	-0.042725	-0.25269	-0.34241	-0.043793	-0.019531	-0.77042	0.016632	0.044098	0.24811	-0.6279	0.48111	0.27878	-0.16464	0.066528	-0.069275	-0.026245	0.014191	0.084229	-0.002899	-0.023651
43.61	-0.019226	-0.31418	0.065765	-0.012512	0.007172	-0.01709	-0.20493	-0.029449	0.076141	0.014343	-0.0914	-0.02533	-0.052948	-0.28275	-0.1651	-0.052948	-0.013885	-0.76935	0.27054	0.014496	0.13473	-0.62637	0.43091	0.091858	-0.19547	-0.024261	-0.02655	0.011139	0.01297	0.22995	-0.002747	-0.023346
43.611	-0.014343	-0.3392	0.04776	0.005035	0.003052	-0.048218	-0.16892	-0.03418	0.054321	0.020905	-0.11826	-0.050812	-0.0914	-0.20447	0.19608	-0.069885	0.010223	-0.90408	0.31616	-0.063477	0.001831	-0.68924	0.39734	-0.008392	-0.20874	-0.010834	0.002899	-0.005798	0.039978	0.26733	-0.003662	-0.024414
43.612	-0.018005	-0.33218	0.067291	-0.001984	0.009918	-0.043182	-0.12283	-0.041809	0.079956	0.029144	-0.1535	-0.035248	-0.089569	-0.054932	0.6752	-0.057983	0.003967	-1.0262	0.21179	-0.070648	-0.23148	-0.62393	0.51926	-0.05188	-0.13916	0.016022	0.002747	-0.02533	0.2298	0.29938	0.00824	-0.01709
43.613	-0.013123	-0.37384	0.065918	0.006256	0.005951	-0.050659	-0.09079	-0.028839	0.066833	0.038452	-0.15656	-0.048676	-0.10742	0.014038	0.79437	-0.063934	-0.048828	-1.0526	-0.063629	-0.0737	-0.3186	-0.44998	0.54504	0.081482	-0.049286	-0.002899	-0.02655	-0.05249	0.26321	0.3154	-0.001831	-0.011749
43.614	-0.009308	-0.38498	0.028534	0.008698	0.018158	-0.040894	-0.079803	-0.022736	0.052338	0.014496	-0.18936	-0.056915	-0.061493	0.073547	0.41199	-0.054321	-0.042725	-0.98389	-0.075684	-0.041656	-0.16785	-0.38696	0.53665	0.19684	-0.17471	0.12543	-0.041046	-0.00351	0.13916	0.27725	-0.001221	-0.013733
43.615	-0.00946	-0.36377	0.020294	-0.020142	0.004272	-0.015564	-0.000458	-0.015717	0.05661	-0.023499	-0.054169	-0.061951	-0.018768	0.095978	0.30792	-0.03418	-0.014038	-0.96817	-0.39902	-0.05722	0.15076	-0.36285	0.1413	0.063171	-0.15656	0.056763	-0.009155	0.1387	0.004578	0.14832	-0.003052	-0.01297
43.616	-0.003967	-0.35568	0.030212	0.004425	0.012665	-0.030518	0.12299	-0.021667	0.037842	-0.010223	0.34622	-0.0737	-0.11719	0.13199	-0.24872	-0.043182	0.021667	-0.75241	0.43274	-0.10117	0.033112	-0.36652	-0.23712	-0.00946	-0.027771	0.027161	0.003815	0.023651	-0.086212	-0.14755	0.004425	-0.017395
43.617	0.003967	-0.3862	0.021362	-0.006866	0.006561	-0.011749	0.17319	-0.019531	0.023651	0.003357	0.3537	-0.085754	-0.18662	0.13672	0.31036	-0.053558	0.065002	-0.59189	0.91751	-0.036774	-0.15396	-0.2739	-0.45349	-0.054626	0.11841	-0.033112	-0.01709	-0.031433	-0.19531	-0.39993	-0.002441	-0.019684
43.618	0.005646	-0.40909	0.00412	0.025635	0.017395	0.002594	0.18692	-0.000916	0.020905	0.011292	0.019989	-0.093384	-0.14938	0.13596	-0.22766	-0.048065	0.056305	-0.63171	-0.017548	-0.008545	-0.02655	-0.098114	-0.6279	-0.071259	0.18555	-0.059357	-0.028992	-0.02655	-0.14206	-0.4747	-0.001678	-0.023193
43.619	-0.001526	-0.38742	0.000153	0.010223	0.010529	0.025635	0.23773	-0.010529	0.023499	0.049591	-0.11704	-0.090942	-0.16083	-0.010986	-0.38559	-0.053406	-0.028534	-0.54031	-0.25833	0.001221	0.14969	-0.090332	-0.6337	-0.059357	0.58289	-0.004272	-0.07019	0.002899	-0.075073	-0.39108	-0.003052	-0.016632
43.62	0.003967	-0.35355	-0.035706	0.031891	0.006104	0.0383	0.28015	0.004578	0.007782	0.055237	-0.24277	-0.097656	-0.054626	-0.076752	-0.52094	-0.05249	-0.036011	-0.52597	-0.40329	0.045929	0.050659	-0.16037	-0.51636	-0.10819	0.84167	0.017395	-0.086212	0.00061	-0.036621	-0.29282	-0.005493	-0.015564
43.621	0.004883	-0.37796	-0.035553	0.050964	0.005798	0.033264	0.27741	0.006256	0.001373	0.021515	-0.16159	-0.09201	0.067139	-0.18646	-0.47119	-0.04715	-0.011292	-0.40375	-0.74951	0.064697	-0.21774	-0.19272	-0.32303	-0.32303	0.60135	0.05127	0.053711	0.005188	0.065613	-0.17654	-0.00351	-0.011749
43.622	0.000153	-0.36057	-0.028992	0.032959	0.005341	0.030823	0.26321	0.004883	0.011902	0.027161	0.03418	-0.092926	0.14221	-0.271	-0.10834	-0.039825	0.032501	-0.18738	-0.45868	0.016632	-0.18249	-0.3157	-0.19791	-0.32089	0.16022	0.053101	0.026855	0.038757	0.033569	-0.13489	-0.001678	-0.010376
43.623	-0.003662	-0.34927	-0.057373	-0.018005	0.010071	0.045929	0.20264	0.012054	0.032196	0.029755	0.27145	-0.087128	0.043945	-0.28671	0.27435	-0.019684	0.039368	-0.23941	-0.13138	0.006409	-0.38193	-0.27542	-0.25482	-0.2153	-0.12131	0.036316	0.04425	-0.010681	0.017242	-0.15167	-0.000458	-0.026398
43.624	-0.011292	-0.32196	-0.048981	-0.003662	0.004425	0.046692	0.11185	0.009766	0.024261	0.030975	0.30441	-0.081329	-0.012665	-0.14938	0.1532	-0.024872	-0.02533	-0.25101	0.83191	-0.008545	-0.33417	-0.32761	-0.27725	-0.055695	-0.32227	0.01297	0.006256	-0.049286	-0.033417	-0.13947	-0.002289	-0.027924
43.625	-0.007629	-0.29282	-0.06073	-0.002136	0.007782	0.04425	-0.022583	0.010529	0.034637	0.033875	0.18951	-0.07309	-0.014496	-0.10681	0.14481	-0.009155	-0.056	-0.16251	1.0246	0.031128	0.12253	-0.5925	-0.044098	0.061951	-0.52933	0.00351	-0.067444	-0.042114	-0.050812	-0.18555	0	-0.022125
43.626	-0.015717	-0.26535	-0.080566	0.000153	0.00824	0.037384	-0.11704	0.021057	0.038452	0.077972	0.062714	-0.061493	-0.098572	-0.088654	0.26321	0.000916	0.002136	-0.063629	0.15579	0.075989	0.13794	-0.63828	0.14328	0.12329	-0.38589	0.014648	-0.1294	-0.052185	-0.061188	-0.15961	-0.003052	-0.012817
43.627	-0.010529	-0.26428	-0.10773	0.005035	0.006714	0.033417	-0.19959	0.007019	0.050964	0.082092	0.001984	-0.056915	-0.12436	-0.067902	0.4715	0.005646	0.020447	-0.022278	0.31296	-0.000763	-0.42511	-0.15915	0.08728	0.11948	-0.025177	0.036774	-0.059052	-0.011902	-0.084534	-0.21439	0.000458	-0.025635
43.628	-0.009766	-0.24643	-0.09079	-0.010986	0.009766	0.028992	-0.084381	0.005951	0.068665	0.075378	0.08255	-0.069275	-0.098877	-0.085449	-0.22049	0.019226	0.006866	0.039978	0.15747	-0.034943	-0.48843	-0.014343	0.063324	0.17777	0.047913	0.040131	-0.023956	0.028076	-0.11108	-0.30807	-0.002136	-0.035858
43.629	-0.004272	-0.21576	-0.07019	-0.014954	-0.00412	0.038452	-0.11948	0.005035	0.073242	0.10284	-0.035858	-0.054474	-0.15289	-0.10468	0.90805	0.019836	-0.042419	-0.23086	-0.20111	0.046844	-0.31693	-0.24353	0.027466	0.21637	0.050812	0.030212	-0.073395	0.10651	-0.074921	-0.38055	-0.001221	-0.038452
43.63	-0.006561	-0.15457	-0.065918	-0.010986	0.010223	0.025787	-0.13107	0.008087	0.072784	0.077515	-0.16937	-0.039825	-0.10712	0.00885	-0.24277	0.035248	-0.099335	-0.43976	-0.51971	0.06012	-0.03891	-0.50323	-0.022888	0.29297	0.045471	0.032501	-0.055542	0.02655	-0.093079	-0.26154	-0.001526	-0.0354
43.631	-0.009918	-0.089569	-0.093079	0.004272	0.013885	0.020142	-0.17029	0.023956	0.09079	0.06134	-0.20401	-0.041962	-0.07019	0.14633	0.22263	0.037689	-0.10574	-0.49362	-0.44205	-0.014496	0.3363	-0.52353	0.007172	0.25543	-0.002289	0.015869	-0.10742	-0.002136	0.1828	0.050812	-0.002747	-0.022278
43.632	-0.014191	-0.095673	-0.080566	0.024109	0.014648	0.016937	-0.15259	0.017242	0.099792	0.048676	-0.168	-0.042725	-0.030365	0.13153	-0.26566	0.047455	-0.082397	-0.49972	-0.83344	-0.011444	0.27039	-0.50903	0.069427	0.19302	0.052032	-0.023651	-0.091095	-0.00061	0.14771	0.37109	-0.00061	-0.027161
43.633	-0.00885	-0.063171	-0.08667	0.02243	0.012665	0.027008	-0.16846	0.021362	0.12451	0.06134	-0.18967	-0.016174	-0.013275	0.001221	0.021362	0.040741	-0.019379	-0.52277	-0.90866	0.002136	0.027313	-0.40176	0.19028	0.040894	0.30746	-0.018311	-0.093079	0.012817	0.079956	0.80124	-0.000305	-0.020905
43.634	-0.01358	-0.030823	-0.087738	0.015106	0.010529	0.02243	-0.11047	0.022125	0.1178	0.057831	-0.29739	-0.067139	-0.03067	-0.031128	0.27542	0.03479	0.002747	-0.54962	-1.4926	0.012512	-0.15015	-0.37079	0.22858	-0.11765	0.36209	-0.043335	-0.039673	0.001526	-0.030212	1.1835	-0.001373	-0.016022
43.635	-0.016785	0.048523	-0.11536	0.004425	0.00885	0.028076	0.001678	0.010834	0.15137	0.055695	-0.12253	-0.040131	-0.087585	0.000153	0.11429	0.035553	0.030365	-0.46417	-1.5221	0.048523	-0.26535	-0.56534	0.18097	-0.13397	0.2887	-0.019989	0.034637	-0.001068	-0.20035	0.97794	-0.001678	-0.00885
43.636	-0.018768	0.081329	-0.11704	0.007477	0.007019	0.014648	-0.00351	0.021362	0.15701	0.06958	0.15015	-0.041199	-0.16098	0.037689	0.088959	0.038452	-0.007172	-0.26581	-0.1828	-0.048523	0.054321	-0.57541	0.14862	-0.11688	0.22995	0.006714	0.12711	-0.023499	-0.2002	0.3157	-0.003967	-0.011902
